<?xml version="1.0" encoding="UTF-8"?>
<svg id="Laag_1" data-name="Laag 1" xmlns="http://www.w3.org/2000/svg" viewBox="0 0 1000 1000">
  <path d="m979.54,888.52c25.14,25.14,25.14,65.88,0,91.03-12.56,12.56-29.03,18.86-45.5,18.86-16.47,0-32.95-6.28-45.53-18.86l-389.25-389.25L110.02,979.54c-12.58,12.58-29.03,18.86-45.53,18.86-16.47,0-32.95-6.28-45.5-18.86-25.14-25.14-25.14-65.88,0-91.03l389.25-389.25L19,110.02c-25.14-25.14-25.14-65.91,0-91.03,25.14-25.14,65.88-25.14,91.03,0l389.26,389.26L888.53,19.01c25.14-25.14,65.88-25.14,91.03,0,25.13,25.13,25.14,65.88,0,91.03l-389.25,389.25,389.25,389.25h-.01Z"/>
</svg>