<?xml version="1.0" encoding="UTF-8"?>
<svg id="Laag_1" data-name="Laag 1" xmlns="http://www.w3.org/2000/svg" viewBox="0 0 1000 1000">
  <path d="m547.38,952.62c0,26.18-21.21,47.38-47.38,47.38-13.08,0-24.93-5.29-33.5-13.87s-13.88-20.42-13.88-33.52v-405.24H47.38c-13.1,0-24.93-5.29-33.52-13.88C5.29,524.93-.02,513.08,0,500,0,473.82,21.21,452.62,47.38,452.62h405.24V47.38C452.62,21.21,473.84-.02,500,0,526.18,0,547.38,21.21,547.38,47.38v405.25h405.24c26.18,0,47.38,21.21,47.38,47.38s-21.21,47.38-47.38,47.38h-405.24v405.24-.02Z"/>
</svg>